# xmcd
#
# Track frame offsets:
#	150
#	17718
#	35809
#	56946
#	80668
#	110917
#	130954
#	168772
#	195608
#	219856
#
# Disc length: 3603 seconds
#
# Revision: 1
# Processed by: cddbd v1.5PL3 Copyright (c) Steve Scherf et al.
# Submitted via: EasyCDDAExtractor 6.5.0.1
#
DISCID=8f0e110a
DTITLE=Bohemian Soul Tribe - Sir Duke
DYEAR=1900
DGENRE=Funk
TTITLE0=Sir Duke
TTITLE1=Superstition
TTITLE2=Diggin' On James Brown
TTITLE3=Missing Tracy
TTITLE4=Sambario
TTITLE5=Snow White
TTITLE6=Empty Spaces
TTITLE7=Blessful Thinking
TTITLE8=Arabian Gigolo
TTITLE9=Mr. Clean
EXTD=
EXTT0=
EXTT1=
EXTT2=
EXTT3=
EXTT4=
EXTT5=
EXTT6=
EXTT7=
EXTT8=
EXTT9=
PLAYORDER=
